<svg width="100" height="100" viewBox="0 0 100 100" fill="none" xmlns="http://www.w3.org/2000/svg">
<path d="M31.25 18.75C31.25 13.7772 33.2254 9.00805 36.7417 5.49175C40.2581 1.97544 45.0272 0 50 0C54.9728 0 59.7419 1.97544 63.2583 5.49175C66.7746 9.00805 68.75 13.7772 68.75 18.75V50C68.75 54.9728 66.7746 59.7419 63.2583 63.2583C59.7419 66.7746 54.9728 68.75 50 68.75C45.0272 68.75 40.2581 66.7746 36.7417 63.2583C33.2254 59.7419 31.25 54.9728 31.25 50V18.75Z" fill="white"/>
<path d="M21.875 40.625C22.7038 40.625 23.4987 40.9542 24.0847 41.5403C24.6708 42.1263 25 42.9212 25 43.75V50C25 56.6304 27.6339 62.9893 32.3223 67.6777C37.0107 72.3661 43.3696 75 50 75C56.6304 75 62.9893 72.3661 67.6777 67.6777C72.3661 62.9893 75 56.6304 75 50V43.75C75 42.9212 75.3292 42.1263 75.9153 41.5403C76.5013 40.9542 77.2962 40.625 78.125 40.625C78.9538 40.625 79.7487 40.9542 80.3347 41.5403C80.9208 42.1263 81.25 42.9212 81.25 43.75V50C81.2501 57.7471 78.3726 65.218 73.1758 70.9634C67.9789 76.7088 60.8332 80.319 53.125 81.0938V93.75H71.875C72.7038 93.75 73.4987 94.0792 74.0847 94.6653C74.6708 95.2513 75 96.0462 75 96.875C75 97.7038 74.6708 98.4987 74.0847 99.0847C73.4987 99.6708 72.7038 100 71.875 100H28.125C27.2962 100 26.5013 99.6708 25.9153 99.0847C25.3292 98.4987 25 97.7038 25 96.875C25 96.0462 25.3292 95.2513 25.9153 94.6653C26.5013 94.0792 27.2962 93.75 28.125 93.75H46.875V81.0938C39.1668 80.319 32.0211 76.7088 26.8242 70.9634C21.6274 65.218 18.7499 57.7471 18.75 50V43.75C18.75 42.9212 19.0792 42.1263 19.6653 41.5403C20.2513 40.9542 21.0462 40.625 21.875 40.625Z" fill="white"/>
</svg>
