<svg width="100" height="100" viewBox="0 0 100 100" fill="none" xmlns="http://www.w3.org/2000/svg">
<g clip-path="url(#clip0_1_2)">
<path d="M81.25 50C81.25 53.525 80.6625 56.9188 79.5875 60.0813L74.5 54.9937C74.8329 53.35 75.0004 51.6771 75 50V43.75C75 42.9212 75.3292 42.1263 75.9153 41.5403C76.5013 40.9542 77.2962 40.625 78.125 40.625C78.9538 40.625 79.7487 40.9542 80.3347 41.5403C80.9208 42.1263 81.25 42.9212 81.25 43.75V50ZM50 75C55.1125 75 59.8625 73.4688 63.825 70.8313L68.3125 75.325C63.851 78.5604 58.6094 80.5513 53.125 81.0938V93.75H71.875C72.7038 93.75 73.4987 94.0792 74.0847 94.6653C74.6708 95.2513 75 96.0462 75 96.875C75 97.7038 74.6708 98.4987 74.0847 99.0847C73.4987 99.6708 72.7038 100 71.875 100H28.125C27.2962 100 26.5013 99.6708 25.9153 99.0847C25.3292 98.4987 25 97.7038 25 96.875C25 96.0462 25.3292 95.2513 25.9153 94.6653C26.5013 94.0792 27.2962 93.75 28.125 93.75H46.875V81.0938C39.1668 80.319 32.0211 76.7088 26.8242 70.9634C21.6274 65.218 18.7499 57.7471 18.75 50V43.75C18.75 42.9212 19.0792 42.1263 19.6653 41.5403C20.2513 40.9542 21.0462 40.625 21.875 40.625C22.7038 40.625 23.4987 40.9542 24.0847 41.5403C24.6708 42.1263 25 42.9212 25 43.75V50C25 56.6304 27.6339 62.9893 32.3223 67.6777C37.0107 72.3661 43.3696 75 50 75ZM68.75 18.75V49.2437L32.2375 12.7312C33.6684 8.5265 36.545 4.96598 40.3552 2.68354C44.1654 0.401099 48.662 -0.455138 53.0444 0.26726C57.4268 0.989659 61.4106 3.24381 64.2867 6.62842C67.1627 10.013 68.7444 14.3085 68.75 18.75Z" fill="white"/>
<path d="M59.2875 66.2938L31.25 38.25V50C31.249 53.2832 32.1102 56.5092 33.7474 59.3551C35.3845 62.201 37.7403 64.5672 40.579 66.2169C43.4176 67.8665 46.6398 68.7419 49.923 68.7554C53.2062 68.7689 56.4354 67.92 59.2875 66.2938ZM10.2875 8.4625L85.2875 83.4625L89.7125 79.0375L14.7125 4.0375L10.2875 8.4625Z" fill="white"/>
</g>
<defs>
<clipPath id="clip0_1_2">
<rect width="100" height="100" fill="white"/>
</clipPath>
</defs>
</svg>
