<svg width="16" height="16" viewBox="0 0 16 16" fill="none" xmlns="http://www.w3.org/2000/svg">
<path d="M10.717 3.55C10.8017 3.59081 10.8732 3.65468 10.9233 3.73428C10.9733 3.81387 10.9999 3.90597 11 4V12C10.9999 12.0941 10.9732 12.1862 10.923 12.2658C10.8729 12.3454 10.8013 12.4093 10.7165 12.45C10.6317 12.4907 10.5371 12.5067 10.4436 12.4961C10.3501 12.4855 10.2615 12.4487 10.188 12.39L7.825 10.5H5.5C5.36739 10.5 5.24021 10.4473 5.14645 10.3536C5.05268 10.2598 5 10.1326 5 10V6C5 5.86739 5.05268 5.74022 5.14645 5.64645C5.24021 5.55268 5.36739 5.5 5.5 5.5H7.825L10.188 3.61C10.2616 3.55119 10.3503 3.51435 10.4439 3.50374C10.5374 3.49312 10.6321 3.50916 10.717 3.55Z" fill="white"/>
</svg>
