<svg width="40" height="40" viewBox="0 0 40 40" fill="none" xmlns="http://www.w3.org/2000/svg">
<path d="M20 40C31.0457 40 40 31.0457 40 20C40 8.9543 31.0457 0 20 0C8.9543 0 0 8.9543 0 20C0 31.0457 8.9543 40 20 40Z" fill="#4F5D73"/>
<path opacity="0.2" d="M20 35C27.5939 35 33.75 28.8439 33.75 21.25C33.75 13.6561 27.5939 7.5 20 7.5C12.4061 7.5 6.25 13.6561 6.25 21.25C6.25 28.8439 12.4061 35 20 35Z" fill="#231F20"/>
<path d="M20 32.5C13.125 32.5 7.5 26.875 7.5 20C7.5 13.125 13.125 7.5 20 7.5C26.875 7.5 32.5 13.125 32.5 20C32.5 26.875 26.875 32.5 20 32.5Z" fill="#C75C5C"/>
<path d="M20 8.75C26.1875 8.75 31.25 13.8125 31.25 20C31.25 26.1875 26.1875 31.25 20 31.25C13.8125 31.25 8.75 26.1875 8.75 20C8.75 13.8125 13.8125 8.75 20 8.75ZM20 6.25C12.375 6.25 6.25 12.375 6.25 20C6.25 27.625 12.375 33.75 20 33.75C27.625 33.75 33.75 27.625 33.75 20C33.75 12.375 27.625 6.25 20 6.25Z" fill="white"/>
<path d="M20 13.75C23.4375 13.75 26.25 16.5625 26.25 20C26.25 23.4375 23.4375 26.25 20 26.25C16.5625 26.25 13.75 23.4375 13.75 20C13.75 16.5625 16.5625 13.75 20 13.75ZM20 11.25C15.1875 11.25 11.25 15.1875 11.25 20C11.25 24.8125 15.1875 28.75 20 28.75C24.8125 28.75 28.75 24.8125 28.75 20C28.75 15.1875 24.8125 11.25 20 11.25Z" fill="white"/>
<path d="M20 23.125C21.7259 23.125 23.125 21.7259 23.125 20C23.125 18.2741 21.7259 16.875 20 16.875C18.2741 16.875 16.875 18.2741 16.875 20C16.875 21.7259 18.2741 23.125 20 23.125Z" fill="white"/>
</svg>
